<svg width="154" height="179" viewBox="0 0 154 179" fill="none" xmlns="http://www.w3.org/2000/svg">
<path d="M99.2161 122.951C92.0223 139.565 74.5517 130.316 74.5517 130.316L74.2091 130.145C62.2195 123.807 65.8164 113.53 65.8164 113.53C70.7835 100.513 87.569 106.337 87.569 106.337C103.841 112.674 99.2161 122.951 99.2161 122.951Z" fill="#EA7A2D"/>
<path d="M74.0379 107.536C73.5241 104.967 78.1486 104.967 78.1486 104.967V104.624L76.4358 102.74C75.5794 101.884 76.4358 100.685 76.4358 100.685C77.1209 99.6569 78.6624 99.6569 78.6624 99.6569C79.6901 98.9718 84.9998 103.596 84.9998 103.596L89.2818 97.6015C90.9946 96.4025 92.3649 97.6015 92.3649 97.6015C93.7351 97.944 93.2213 100.685 93.2213 100.685L89.7957 104.967C89.7957 105.823 93.7351 105.823 93.7351 105.823C96.9894 105.994 96.9894 108.221 96.9894 108.221C97.5033 110.79 93.7351 110.79 93.7351 110.79C95.7905 113.531 93.7351 114.73 93.7351 114.73C91.3372 116.442 89.7957 113.531 89.7957 113.531C88.2541 111.304 83.6296 109.249 83.6296 109.249C82.2593 108.735 78.1486 109.249 78.1486 109.249C74.0379 110.276 74.0379 107.536 74.0379 107.536Z" fill="#428B6F"/>
<path d="M97.846 161.147C71.1262 163.716 74.8944 138.195 74.8944 138.195H74.723C69.0708 141.621 70.0985 151.212 70.0985 151.212C71.9826 161.147 80.0327 165.086 80.0327 165.086C93.0501 168.512 97.846 161.147 97.846 161.147Z" fill="#428B6F"/>
<path d="M108.808 133.742C101.1 128.261 94.078 135.968 94.078 135.968L93.3928 136.654C85.5139 145.389 93.3928 151.555 93.3928 151.555C100.758 157.721 108.123 149.328 108.123 149.328C116.516 138.538 108.808 133.742 108.808 133.742Z" fill="#FF9E2C"/>
<path d="M119.769 125.52C113.603 112.674 103.155 112.674 103.155 112.674L103.327 111.646C105.211 102.911 113.261 102.911 113.261 102.911C121.311 103.596 122.853 110.961 122.853 110.961C125.936 121.752 119.769 125.52 119.769 125.52Z" fill="#FF9E2C"/>
<path d="M27.2779 23.2657C33.1015 24.2934 27.2779 36.9682 27.2779 36.9682H27.9632C29.8472 36.9682 31.9025 34.2277 31.9025 34.2277C37.5549 29.7744 36.6985 23.7796 36.6985 23.7796C35.3282 14.1879 26.4215 15.3868 26.4215 15.3868C18.714 16.0719 12.7191 25.4924 12.7191 25.4924C8.95092 31.3159 9.9786 39.0235 9.9786 39.0235C11.0063 47.245 16.8298 51.1845 16.8298 51.1845C22.4821 55.2952 23.1672 60.4336 23.1672 60.4336C25.0513 66.0859 20.4267 72.0807 20.4267 72.0807C27.9631 71.3955 30.8748 62.8315 30.8748 62.8315C31.9025 60.4336 31.9025 55.2952 31.9025 55.2952C31.2174 48.9578 26.4215 44.8471 26.4215 44.8471C21.9682 41.2502 21.4544 34.2277 21.4544 34.2277C21.797 24.4647 27.2779 23.2657 27.2779 23.2657Z" fill="#B87F57"/>
<path d="M53.8269 109.077C40.2957 110.448 35.4998 116.785 35.4998 116.785L35.3286 116.956C33.6158 118.84 34.8147 123.294 34.8147 123.294L56.0535 158.92C57.9376 162.688 62.3909 162.003 62.3909 162.003C65.1314 161.318 65.1314 157.036 65.1314 157.036L59.6504 113.702C58.794 109.077 53.8269 109.077 53.8269 109.077Z" fill="#FF9E2C"/>
<path d="M51.9426 134.598L43.5498 138.024L45.9477 141.963L53.3128 138.88C54.1692 138.537 54.1692 136.825 54.1692 136.825C53.8266 134.598 51.9426 134.598 51.9426 134.598Z" fill="#E9792D"/>
<path d="M53.3128 123.294L60.5066 121.409L61.0204 126.034L54.1692 128.089C51.6 128.261 51.2574 126.377 51.2574 126.377C50.7436 124.15 53.3128 123.294 53.3128 123.294Z" fill="#E9792D"/>
<path d="M58.1087 146.759L63.5896 145.217L64.1035 149.499L59.1363 150.87C57.4235 151.212 56.9097 149.842 56.9097 149.842C56.0533 147.958 58.1087 146.759 58.1087 146.759Z" fill="#E9792D"/>
<path d="M32.4167 108.221L39.2679 113.531L39.4392 113.531C42.351 111.133 50.4012 109.42 50.4012 109.42L53.1416 101.884C54.1693 98.2866 51.6001 97.7729 51.6001 97.7729C50.0586 96.5738 48.1745 98.2866 48.1745 98.2866L46.2904 103.596H45.7766L43.7212 96.2314C42.8648 93.8334 39.953 94.3473 39.953 94.3473C36.87 95.5462 37.7264 97.7729 37.7264 97.7729L40.2956 106.679L35.671 103.596C33.2731 103.254 32.4167 104.967 32.4167 104.967C31.2177 106.679 32.4167 108.221 32.4167 108.221Z" fill="#428B6F"/>
<path d="M27.4492 80.9874C36.0132 61.4614 63.5894 56.4943 63.5894 56.4943H63.9319C65.3022 52.2123 66.5012 43.8195 66.5012 43.8195C48.8593 40.9078 50.9146 25.4925 50.9146 25.4925C53.9977 4.08246 75.4077 9.56339 75.4077 9.56339C83.9718 -1.91235 94.7624 0.142966 94.7624 0.142966C110.52 0.828088 113.432 12.4752 113.432 12.4752C140.494 6.30907 140.494 30.6309 140.494 30.6309C138.953 49.4718 121.653 49.4718 121.653 49.4718L118.228 68.8265C124.737 75.1638 126.621 80.9874 126.621 80.9874C129.361 87.1535 119.769 88.1812 119.769 88.1812C112.576 89.2089 77.4631 89.2089 77.4631 89.2089C61.7053 89.3801 31.0461 87.1535 31.0461 87.1535C25.9077 85.4407 27.4492 80.9874 27.4492 80.9874Z" fill="#B87F57"/>
<path d="M113.261 63.8591C92.1937 50.4992 70.6123 54.7813 70.6123 54.7813L70.9549 53.9249C71.2974 53.4111 73.1815 40.0512 73.1815 40.0512C73.1815 38.681 71.8113 38.167 71.8113 38.167H65.3026C53.9981 33.7138 56.5673 24.9785 56.5673 24.9785C59.9929 11.7899 73.8666 15.0442 73.8666 15.0442C74.723 16.2432 77.4635 16.5857 77.4635 16.5857C79.8615 16.9283 79.8615 15.0442 79.8615 15.0442C83.4583 5.28123 93.7352 5.62379 93.7352 5.62379C107.266 6.13763 109.15 17.6134 109.15 17.6134C109.322 18.8124 110.178 19.4974 110.178 19.4974C111.548 20.1826 112.747 19.4974 112.747 19.4974C116.858 16.0718 120.798 16.5857 120.798 16.5857C136.555 17.2708 135.185 30.2881 135.185 30.2881C134.5 44.1618 120.798 43.648 120.798 43.648C110.863 44.1618 104.697 33.1999 104.697 33.1999C103.327 32.6861 102.642 33.1999 102.642 33.1999C94.7629 43.4768 82.9445 38.167 82.9445 38.167C79.8615 37.6532 81.0604 41.7639 81.0604 41.7639C94.5916 48.2726 102.642 41.7639 102.642 41.7639C110.178 49.3003 115.83 49.8141 115.83 49.8141L113.261 63.8591Z" fill="#F9F5F0"/>
<path d="M118.057 80.6449C79.1764 73.2798 38.4116 79.1034 38.4116 79.1034V78.932C51.4289 60.4337 79.0051 62.1466 79.0051 62.1466C112.062 63.3455 118.057 80.6449 118.057 80.6449Z" fill="#F9F5F0"/>
<path d="M3.64134 98.9719H21.9684H22.4822C23.5099 92.6345 27.4494 94.3473 27.4494 94.3473C30.3611 95.7176 28.9909 98.9719 28.9909 98.9719C12.7193 139.052 46.2902 162.346 46.2902 162.346C55.1968 169.539 69.0705 171.595 69.0705 171.595C93.3924 174.678 107.266 162.346 107.266 162.346C142.036 135.969 124.565 98.9719 124.565 98.9719C124.052 96.0602 126.621 95.2037 126.621 95.2037C129.875 94.0048 131.759 98.9719 131.759 98.9719H149.744C153.341 99.8283 153.341 103.254 153.341 103.254C154.197 109.249 134.842 109.249 134.842 109.249C141.865 169.026 86.8837 178.103 86.8837 178.103C76.093 179.988 66.5013 178.103 66.5013 178.103C9.12236 164.915 18.5428 109.249 18.5428 109.249C18.0289 109.249 3.64134 107.536 3.64134 107.536C-0.298068 105.652 0.04445 103.254 0.04445 103.254C-0.469392 100.342 3.64134 98.9719 3.64134 98.9719Z" fill="#B87F57"/>
</svg>
