<svg width="42" height="39" viewBox="0 0 42 39" fill="none" xmlns="http://www.w3.org/2000/svg">
<path d="M2.02273 31V7.72727H6.94318V26.9432H16.9205V31H2.02273ZM39.8068 15.875H34.8295C34.7386 15.2311 34.553 14.6591 34.2727 14.1591C33.9924 13.6515 33.6326 13.2197 33.1932 12.8636C32.7538 12.5076 32.2462 12.2348 31.6705 12.0455C31.1023 11.8561 30.4848 11.7614 29.8182 11.7614C28.6136 11.7614 27.5644 12.0606 26.6705 12.6591C25.7765 13.25 25.0833 14.1136 24.5909 15.25C24.0985 16.3788 23.8523 17.75 23.8523 19.3636C23.8523 21.0227 24.0985 22.4167 24.5909 23.5455C25.0909 24.6742 25.7879 25.5265 26.6818 26.1023C27.5758 26.678 28.6098 26.9659 29.7841 26.9659C30.4432 26.9659 31.053 26.8788 31.6136 26.7045C32.1818 26.5303 32.6856 26.2765 33.125 25.9432C33.5644 25.6023 33.928 25.1894 34.2159 24.7045C34.5114 24.2197 34.7159 23.6667 34.8295 23.0455L39.8068 23.0682C39.678 24.1364 39.3561 25.1667 38.8409 26.1591C38.3333 27.1439 37.6477 28.0265 36.7841 28.8068C35.928 29.5795 34.9053 30.1932 33.7159 30.6477C32.5341 31.0947 31.197 31.3182 29.7045 31.3182C27.6288 31.3182 25.7727 30.8485 24.1364 29.9091C22.5076 28.9697 21.2197 27.6098 20.2727 25.8295C19.3333 24.0492 18.8636 21.8939 18.8636 19.3636C18.8636 16.8258 19.3409 14.6667 20.2955 12.8864C21.25 11.1061 22.5455 9.75 24.1818 8.81818C25.8182 7.87879 27.6591 7.40909 29.7045 7.40909C31.053 7.40909 32.303 7.59848 33.4545 7.97727C34.6136 8.35606 35.6402 8.90909 36.5341 9.63636C37.428 10.3561 38.1553 11.2386 38.7159 12.2841C39.2841 13.3295 39.6477 14.5265 39.8068 15.875Z" fill="url(#paint0_linear_365_4905)"/>
<defs>
<linearGradient id="paint0_linear_365_4905" x1="0" y1="0" x2="44.4578" y2="35.9615" gradientUnits="userSpaceOnUse">
<stop stop-color="#AB6C4B"/>
<stop offset="1" stop-color="#E6D5C2"/>
</linearGradient>
</defs>
</svg>
